<?xml version="1.0" encoding="UTF-8" standalone="no"?>
<svg
   xmlns:dc="http://purl.org/dc/elements/1.1/"
   xmlns:cc="http://creativecommons.org/ns#"
   xmlns:rdf="http://www.w3.org/1999/02/22-rdf-syntax-ns#"
   xmlns:svg="http://www.w3.org/2000/svg"
   xmlns="http://www.w3.org/2000/svg"
   viewBox="0 0 476.04999 75.25"
   height="75.25"
   width="476.04999"
   xml:space="preserve"
   version="1.1"
   id="svg2"><metadata
     id="metadata8"><rdf:RDF><cc:Work
         rdf:about=""><dc:format>image/svg+xml</dc:format><dc:type
           rdf:resource="http://purl.org/dc/dcmitype/StillImage" /></cc:Work></rdf:RDF></metadata><defs
     id="defs6" /><g
     transform="matrix(1.25,0,0,-1.25,0,75.25)"
     id="g10"><g
       transform="scale(0.1,0.1)"
       id="g12"><path
         id="path14"
         style="fill:#3259b1;fill-opacity:1;fill-rule:nonzero;stroke:none"
         d="M 358.645,590.801 C 266.172,635.543 128.418,542.059 50.9727,381.996 -26.4727,221.953 -14.2969,55.9336 78.168,11.1719 98.2305,1.46484 120.422,-1.71875 143.668,0.855469 l 0,222.675531 -48.0586,0 121.0506,208.297 122.844,-206.527 -44.504,0 0,-137.6096 c 34.219,35.4686 65.723,80.3286 90.852,132.2616 77.449,160.074 65.273,326.094 -27.207,370.848" /><path
         id="path16"
         style="fill:#100f0d;fill-opacity:1;fill-rule:nonzero;stroke:none"
         d="m 600.426,85.5469 0,13.1836 c 21.875,0 37.117,2.7925 45.687,8.3905 10.711,7.305 16.082,22.149 16.082,44.531 l 0,338.789 -39.312,0 c -30.082,0 -51.137,-5.851 -63.168,-17.5 -8.606,-8.644 -14.832,-23.781 -18.688,-45.363 l -16.117,0 4.516,87.676 323.316,0 4.531,-87.676 -16.164,0 c -2.156,21.582 -9.058,37.168 -20.687,46.66 -13.793,10.801 -35.762,16.203 -65.918,16.203 l -34.91,0 0,-338.789 c 0,-22.382 5.613,-37.226 16.84,-44.531 8.191,-5.598 23.304,-8.3905 45.32,-8.3905 l 0,-13.1836 -181.328,0" /><path
         id="path18"
         style="fill:#100f0d;fill-opacity:1;fill-rule:nonzero;stroke:none"
         d="m 846.188,85.5469 0,10.8594 c 17.136,0 29.57,3.4492 37.289,10.3237 7.711,6.903 11.578,19.383 11.578,37.461 l 0,176.297 c 0,16.778 -5.789,28.41 -17.36,34.864 -6.433,3.859 -16.937,6.23 -31.507,7.101 l 0,10.86 99.281,15.507 0,-69.015 1.301,0 c 17.64,46.008 45.628,69.015 83.95,69.015 7.75,0 15.08,-2.668 21.96,-8.027 6.88,-5.352 10.34,-12.512 10.34,-21.516 0,-20.117 -10.34,-30.175 -31,-30.175 -7.33,0 -14.75,2.578 -22.29,7.753 -7.54,5.168 -12.375,7.754 -14.535,7.754 -9.043,0 -18.734,-7.546 -29.066,-22.617 -13.774,-19.832 -20.66,-46.543 -20.66,-80.156 l 0,-97.598 c 0,-18.093 3.883,-30.593 11.636,-37.492 7.758,-6.8905 20.266,-10.3397 37.508,-10.3397 l 0,-10.8594 -148.425,0" /><path
         id="path20"
         style="fill:#100f0d;fill-opacity:1;fill-rule:nonzero;stroke:none"
         d="m 1241.54,190.988 0,38.055 c -75.32,-1.719 -112.97,-23.875 -112.97,-66.445 0,-16.328 4.4,-29.774 13.23,-40.301 8.83,-10.539 19.04,-15.813 30.66,-15.813 20.23,0 36.79,8.379 49.72,25.149 12.91,16.765 19.36,36.562 19.36,59.355 z m 95.51,-92.2575 0,-13.1836 c -15.44,-4.1406 -31.1,-6.1992 -46.98,-6.1992 -32.17,0 -48.26,15.6054 -48.26,46.8633 -21.71,-31.2579 -52.54,-46.8633 -92.48,-46.8633 -22.59,0 -41.26,6.8554 -56.01,20.5937 -14.77,13.7306 -22.15,31.1246 -22.15,52.1676 0,39.914 22.38,67.395 67.12,82.434 16.35,5.566 50.76,10.723 103.25,15.449 l 0,24.617 c 0,30.227 -2.35,51.379 -7.07,63.469 -7.74,19.871 -23.62,29.813 -47.65,29.813 -15.88,0 -27.04,-2.598 -33.48,-7.782 -7.73,-5.636 -11.59,-15.558 -11.59,-29.816 0,-22.48 -10.1,-33.711 -30.31,-33.711 -9.04,0 -16.45,2.664 -22.26,8.047 -5.8,5.383 -8.71,12.363 -8.71,20.969 0,19.363 12.28,35.047 36.8,47.097 21.53,10.754 44.98,16.125 70.38,16.125 40.88,0 69.29,-9.668 85.21,-28.976 12.91,-15.028 19.37,-39.52 19.37,-73.43 l 0,-159.742 c 0,-20.188 9.17,-30.2657 27.54,-30.2657 3.82,0 9.6,0.7812 17.28,2.3242" /><path
         id="path22"
         style="fill:#100f0d;fill-opacity:1;fill-rule:nonzero;stroke:none"
         d="m 1421.16,234.082 c 0,-87.137 23.18,-130.691 69.55,-130.691 23.61,0 41.21,15.019 52.8,45.078 9.44,23.172 14.17,51.707 14.17,85.613 0,35.195 -4.94,64.602 -14.81,88.215 -12.02,28.32 -29.41,42.488 -52.16,42.488 -24.47,0 -42.93,-15.027 -55.38,-45.066 -9.45,-23.176 -14.17,-51.723 -14.17,-85.637 z m 136.52,-154.7343 0,47.5073 -1.28,0 c -3.45,-10.273 -12.04,-20.332 -25.78,-30.1831 -15.89,-11.5547 -32,-17.3242 -48.31,-17.3242 -41.67,0 -72.59,15.8984 -92.78,47.7033 -17.19,27.09 -25.76,62.746 -25.76,107.031 0,44.277 8.57,79.953 25.76,107.023 20.19,31.805 51.11,47.715 92.78,47.715 33.06,0 57.76,-16.543 74.09,-49.66 l 1.28,0 0,126.418 c 0,16.766 -5.77,28.375 -17.3,34.832 -5.99,3.008 -16.45,5.371 -31.41,7.098 l 0,10.851 99.13,15.516 0,-386.207 c 0,-16.758 5.83,-28.359 17.51,-34.797 6.48,-3.887 17.08,-6.25 31.78,-7.098 l 0,-10.9683 -99.71,-15.457" /><path
         id="path24"
         style="fill:#100f0d;fill-opacity:1;fill-rule:nonzero;stroke:none"
         d="m 1733.76,288.77 130.3,0 c 0,52.734 -20.43,79.121 -61.28,79.121 -21.94,0 -39.57,-10.176 -52.89,-30.489 -10.77,-16.433 -16.13,-32.636 -16.13,-48.632 z m 179.45,-177.403 0,-20.4959 c -20.65,-7.6875 -46.27,-11.5234 -76.8,-11.5234 -104.11,0 -156.17,54.3633 -156.17,163.1253 0,97.566 43.64,146.347 130.93,146.347 31.4,0 56.97,-8.359 76.75,-25.09 22.36,-19.324 33.54,-46.562 33.54,-81.746 l 0,-14.171 -187.7,0 c 0,-37.833 8.82,-72 26.46,-102.52 24.1,-41.27 60.04,-61.902 107.8,-61.902 18.93,0 33.99,2.656 45.19,7.976" /><path
         id="path26"
         style="fill:#100f0d;fill-opacity:1;fill-rule:nonzero;stroke:none"
         d="m 2220.15,422.41 -16.06,0 c -3.47,20.227 -12.26,36.781 -26.42,49.699 -18,16.348 -42.64,24.532 -73.96,24.532 -22.32,0 -41.41,-6.563 -57.27,-19.676 -15.87,-13.117 -23.8,-29.992 -23.8,-50.625 0,-24.082 14.99,-45.363 44.98,-63.86 29.11,-15.046 58.26,-30.085 87.39,-45.144 29.13,-17.207 49.68,-32.902 61.69,-47.082 15.4,-18.934 23.11,-42.352 23.11,-70.313 0,-39.128 -15.45,-69.445 -46.39,-90.925 -28.37,-19.7777 -65.97,-29.6683 -112.8,-29.6683 -22.78,0 -59.75,4.082 -110.87,12.2148 l -4.51,90.7815 16.11,0 c 3.02,-19.813 12.47,-36.387 28.38,-49.746 18.91,-16.375 44.27,-24.551 76.1,-24.551 27.93,0 50.5,7.844 67.71,23.535 17.17,15.684 25.78,34.922 25.78,57.715 0,20.644 -10.1,39.348 -30.27,56.125 -12.02,10.301 -34.57,23.848 -67.62,40.625 -33.06,16.766 -56.03,30.098 -68.9,39.988 -27.9,21.504 -41.86,50.305 -41.86,86.426 0,36.973 13.96,64.922 41.89,83.848 25.37,16.769 59.74,25.156 103.15,25.156 30.09,0 63.4,-3.641 99.92,-10.93 l 4.52,-88.125" /><path
         id="path28"
         style="fill:#100f0d;fill-opacity:1;fill-rule:nonzero;stroke:none"
         d="m 2449.58,103.613 0,-21.7185 c -13.79,-1.6992 -24.14,-2.5468 -31.02,-2.5468 -46.15,0 -75.49,7.0703 -87.99,21.2573 -9.9,10.735 -14.88,35.637 -14.88,74.739 l 0,185.566 -51.95,0 0,20.938 c 57.09,0 85.64,32.566 85.64,97.742 l 16.74,0 0,-96.961 83.46,0 0,-21.719 -83.46,0 0,-203.867 c 0,-22.797 5.18,-38.262 15.51,-46.426 8.18,-6.887 22.22,-10.324 42.07,-10.324 2.17,0 10.8,1.086 25.88,3.32" /><path
         id="path30"
         style="fill:#100f0d;fill-opacity:1;fill-rule:nonzero;stroke:none"
         d="m 2644.52,190.988 0,38.055 c -75.33,-1.719 -112.99,-23.875 -112.99,-66.445 0,-16.328 4.41,-29.774 13.24,-40.301 8.83,-10.539 19.04,-15.813 30.67,-15.813 20.21,0 36.77,8.379 49.7,25.149 12.91,16.765 19.38,36.562 19.38,59.355 z m 95.49,-92.2575 0,-13.1836 c -15.43,-4.1406 -31.08,-6.1992 -46.98,-6.1992 -32.16,0 -48.26,15.6054 -48.26,46.8633 -21.72,-31.2579 -52.52,-46.8633 -92.46,-46.8633 -22.6,0 -41.27,6.8554 -56.03,20.5937 -14.77,13.7306 -22.15,31.1246 -22.15,52.1676 0,39.914 22.36,67.395 67.13,82.434 16.34,5.566 50.76,10.723 103.26,15.449 l 0,24.617 c 0,30.227 -2.37,51.379 -7.09,63.469 -7.72,19.871 -23.62,29.813 -47.64,29.813 -15.9,0 -27.05,-2.598 -33.48,-7.782 -7.73,-5.636 -11.58,-15.57 -11.58,-29.816 0,-22.48 -10.13,-33.711 -30.31,-33.711 -9.06,0 -16.46,2.664 -22.29,8.047 -5.8,5.383 -8.69,12.363 -8.69,20.969 0,19.363 12.27,35.047 36.78,47.097 21.54,10.754 45,16.125 70.41,16.125 40.86,0 69.28,-9.668 85.22,-28.976 12.89,-15.028 19.35,-39.512 19.35,-73.43 l 0,-159.742 c 0,-20.188 9.16,-30.2657 27.54,-30.2657 3.83,0 9.59,0.7812 17.27,2.3242" /><path
         id="path32"
         style="fill:#100f0d;fill-opacity:1;fill-rule:nonzero;stroke:none"
         d="m 2931.65,103.613 0,-21.7185 c -13.79,-1.6992 -24.14,-2.5468 -31.04,-2.5468 -46.15,0 -75.49,7.0703 -87.97,21.2573 -9.94,10.735 -14.88,35.637 -14.88,74.739 l 0,185.566 -51.97,0 0,20.938 c 57.09,0 85.64,32.566 85.64,97.742 l 16.74,0 0,-96.961 83.48,0 0,-21.719 -83.48,0 0,-203.867 c 0,-22.797 5.18,-38.262 15.53,-46.426 8.2,-6.894 22.2,-10.324 42.07,-10.324 2.15,0 10.78,1.086 25.88,3.32" /><path
         id="path34"
         style="fill:#100f0d;fill-opacity:1;fill-rule:nonzero;stroke:none"
         d="m 3015.53,447.773 c -10.35,0 -19.06,3.555 -26.17,10.676 -7.13,7.098 -10.66,15.828 -10.66,26.172 0,10.34 3.53,19.059 10.66,26.18 7.11,7.101 15.82,10.664 26.17,10.664 10.35,0 19.09,-3.563 26.18,-10.664 7.1,-7.121 10.66,-15.84 10.66,-26.18 0,-10.344 -3.56,-19.074 -10.66,-26.172 -7.09,-7.121 -15.83,-10.676 -26.18,-10.676 z m -72.52,-362.2261 0,10.8594 c 17.13,0 29.57,3.4492 37.31,10.3237 7.69,6.903 11.56,19.383 11.56,37.461 l 0,176.297 c 0,16.778 -5.8,28.41 -17.36,34.864 -6.43,3.859 -16.96,6.23 -31.51,7.101 l 0,10.86 99.28,15.507 0,-244.648 c 0,-18.086 3.87,-30.539 11.64,-37.442 7.76,-6.8745 20.26,-10.3237 37.5,-10.3237 l 0,-10.8594 -148.42,0" /><path
         id="path36"
         style="fill:#100f0d;fill-opacity:1;fill-rule:nonzero;stroke:none"
         d="m 3159.19,234.082 c 0,-34.902 4.96,-63.984 14.88,-87.266 12.91,-31.015 33.81,-46.523 62.67,-46.523 28.87,0 49.98,15.508 63.36,46.523 9.48,23.282 14.22,52.364 14.22,87.266 0,34.902 -4.74,63.996 -14.22,87.258 -13.38,31.043 -34.49,46.551 -63.36,46.551 -28.86,0 -49.76,-15.508 -62.67,-46.551 -9.92,-23.262 -14.88,-52.356 -14.88,-87.258 z m 77.55,-154.7343 c -41.32,0 -74.16,13.75 -98.47,41.2693 -24.34,27.508 -36.49,65.332 -36.49,113.465 0,48.145 12.15,85.969 36.49,113.477 24.31,27.519 57.15,41.261 98.47,41.261 41.31,0 74.14,-13.742 98.48,-41.261 24.32,-27.508 36.5,-65.332 36.5,-113.477 0,-48.133 -12.18,-85.957 -36.5,-113.465 -24.34,-27.5193 -57.17,-41.2693 -98.48,-41.2693" /><path
         id="path38"
         style="fill:#100f0d;fill-opacity:1;fill-rule:nonzero;stroke:none"
         d="m 3394.36,85.5586 0,10.8477 c 17.15,0 29.59,3.4492 37.31,10.3237 7.69,6.903 11.56,19.383 11.56,37.461 l 0,176.297 c 0,25.821 -16.27,39.817 -48.87,41.965 l 0,10.86 99.28,15.507 0,-85.136 1.31,0 c 21.52,56.765 55.56,85.136 102.11,85.136 31.46,0 52.57,-8.808 63.36,-26.457 7.75,-12.929 11.64,-36.59 11.64,-71.015 l 0,-147.176 c 0,-18.086 3.84,-30.539 11.56,-37.442 7.69,-6.8745 20.14,-10.3237 37.28,-10.3237 l 0,-10.8477 -148.43,0 0,10.8477 c 17.26,0 29.74,3.4492 37.52,10.3237 7.75,6.903 11.64,19.356 11.64,37.442 l 0,132.949 c 0,31.832 -1.94,52.274 -5.82,61.317 -5.16,12.902 -17.68,19.367 -37.46,19.367 -18.97,0 -37.86,-14.739 -56.57,-44.211 -18.77,-29.481 -28.14,-59.5 -28.14,-90.039 l 0,-79.383 c 0,-18.086 3.89,-30.539 11.64,-37.442 7.75,-6.8745 20.27,-10.3237 37.52,-10.3237 l 0,-10.8477 -148.44,0" /><path
         id="path40"
         style="fill:#100f0d;fill-opacity:1;fill-rule:nonzero;stroke:none"
         d="m 3757.04,355.324 -11.82,0 0,-21.965 11.82,0 c 6.77,0 11.44,0.852 14,2.532 2.56,1.679 3.83,4.617 3.83,8.847 0,3.633 -1.43,6.317 -4.32,8.028 -2.89,1.707 -7.38,2.558 -13.51,2.558 z m 1.54,5.449 c 8.4,0 14.59,-1.32 18.54,-3.957 3.94,-2.636 5.93,-6.765 5.93,-12.382 0,-4.161 -1.29,-7.625 -3.88,-10.438 -2.6,-2.805 -6.04,-4.457 -10.34,-4.973 l 13.3,-27.558 -9.16,0 -12.79,26.445 -14.96,0 0,-26.445 -8.03,0 0,59.308 21.39,0 z m 44.65,-30.5 c 0,6.211 -1.13,12.122 -3.42,17.707 -2.28,5.594 -5.59,10.547 -9.88,14.903 -4.44,4.433 -9.44,7.82 -15.04,10.125 -5.61,2.316 -11.54,3.469 -17.81,3.469 -6.21,0 -12.07,-1.145 -17.6,-3.43 -5.53,-2.293 -10.45,-5.594 -14.69,-9.891 -4.41,-4.535 -7.83,-9.629 -10.19,-15.273 -2.33,-5.656 -3.54,-11.524 -3.54,-17.61 0,-6.062 1.19,-11.894 3.52,-17.488 2.34,-5.586 5.68,-10.566 10.07,-14.972 4.38,-4.383 9.38,-7.762 14.97,-10.125 5.58,-2.356 11.4,-3.536 17.46,-3.536 6.09,0 11.97,1.192 17.61,3.575 5.69,2.382 10.77,5.789 15.24,10.234 4.35,4.297 7.67,9.187 9.92,14.687 2.28,5.489 3.38,11.356 3.38,17.625 z m -46.15,51.34 c 6.97,0 13.57,-1.289 19.82,-3.867 6.25,-2.57 11.82,-6.308 16.66,-11.223 4.82,-4.777 8.5,-10.281 11.04,-16.484 2.52,-6.219 3.78,-12.801 3.78,-19.715 0,-7.035 -1.25,-13.578 -3.75,-19.66 -2.5,-6.074 -6.19,-11.512 -11.07,-16.277 -4.98,-4.953 -10.62,-8.77 -16.93,-11.407 -6.29,-2.636 -12.82,-3.964 -19.55,-3.964 -6.76,0 -13.25,1.297 -19.42,3.886 -6.19,2.618 -11.74,6.383 -16.64,11.344 -4.9,4.856 -8.65,10.383 -11.23,16.567 -2.56,6.16 -3.85,12.675 -3.85,19.511 0,6.766 1.31,13.289 3.93,19.571 2.62,6.265 6.39,11.902 11.29,16.902 4.72,4.824 10.15,8.496 16.29,11.027 6.11,2.52 12.67,3.789 19.63,3.789" /></g></g></svg>